# xmcd CD database file
#
# Track frame offsets:
#	150
#	10583
#	24257
#	43265
#	57918
#	72872
#	92855
#	108919
#	127399
#	143321
#	166437
#	180613
#	192605
#	204040
#	226790
#	234922
#	253056
#	265743
#	286975
#	300882
#
# Disc length: 4217 seconds
#
# Revision: 3
# Processed by: cddbd v1.5.1PL0 Copyright (c) Steve Scherf et al.
# Submitted via: CDex 1.51
#
DISCID=07107714
DTITLE=Louis Armstrong - Giants of Music
DYEAR=2002
DGENRE=Jazz
TTITLE0=What a wonderful world
TTITLE1=Struttin' with some barbecue
TTITLE2=Blueberry Hill
TTITLE3=When the saints go marching in
TTITLE4=West End Blues
TTITLE5=I can't give anything but love
TTITLE6=C'est ci bon
TTITLE7=Ain't misbehavin'
TTITLE8=Mack The Knife
TTITLE9=Now you has jazz
TTITLE10=Corner shop Suey
TTITLE11=Muskat Ramble
TTITLE12=Tiger rag
TTITLE13=La vie en rose
TTITLE14=Stomping at the Savoy
TTITLE15=Cabaret
TTITLE16=Lover
TTITLE17=Jeepers creepers
TTITLE18=A kiss to build a dream on
TTITLE19=On the sunny side of the street
EXTD=YEAR: 2002
EXTT0=
EXTT1=
EXTT2=
EXTT3=
EXTT4=
EXTT5=
EXTT6=
EXTT7=
EXTT8=
EXTT9=
EXTT10=
EXTT11=
EXTT12=
EXTT13=
EXTT14=
EXTT15=
EXTT16=
EXTT17=
EXTT18=
EXTT19=
PLAYORDER=
